<mxfile host="app.diagrams.net" modified="2023-06-18T00:36:53.709Z" agent="Mozilla/5.0 (Windows NT 10.0; Win64; x64) AppleWebKit/537.36 (KHTML, like Gecko) Chrome/114.0.0.0 Safari/537.36" etag="Xn3juToTCp8hD_V2L5k_" version="21.4.0" type="google">
  <diagram name="Page-1" id="b520641d-4fe3-3701-9064-5fc419738815">
    <mxGraphModel grid="1" page="1" gridSize="10" guides="1" tooltips="1" connect="1" arrows="1" fold="1" pageScale="1" pageWidth="1100" pageHeight="850" background="none" math="0" shadow="0">
      <root>
        <mxCell id="0" />
        <mxCell id="1" parent="0" />
        <mxCell id="E_lYnqVRtEGuCz4sBSCE-39" style="edgeStyle=orthogonalEdgeStyle;rounded=0;orthogonalLoop=1;jettySize=auto;html=1;" edge="1" parent="1" source="21ea969265ad0168-22" target="qf_Xf1xaWqLLTU25-IPU-7">
          <mxGeometry relative="1" as="geometry" />
        </mxCell>
        <mxCell id="21ea969265ad0168-22" value="Procesar&amp;nbsp;sondas" style="swimlane;html=1;fontStyle=0;childLayout=stackLayout;horizontal=1;startSize=30;fillColor=#e0e0e0;horizontalStack=0;resizeParent=1;resizeLast=0;collapsible=1;marginBottom=0;swimlaneFillColor=#ffffff;align=center;rounded=1;shadow=0;comic=0;labelBackgroundColor=none;strokeWidth=1;fontFamily=Verdana;fontSize=12" vertex="1" parent="1">
          <mxGeometry x="290" y="260" width="160" height="108" as="geometry">
            <mxRectangle x="560" y="340" width="150" height="40" as="alternateBounds" />
          </mxGeometry>
        </mxCell>
        <mxCell id="21ea969265ad0168-23" value="cargar datos de sondas" style="text;html=1;strokeColor=none;fillColor=none;spacingLeft=4;spacingRight=4;whiteSpace=wrap;overflow=hidden;rotatable=0;points=[[0,0.5],[1,0.5]];portConstraint=eastwest;" vertex="1" parent="21ea969265ad0168-22">
          <mxGeometry y="30" width="160" height="26" as="geometry" />
        </mxCell>
        <mxCell id="E_lYnqVRtEGuCz4sBSCE-17" value="setear organismo" style="text;html=1;strokeColor=none;fillColor=none;spacingLeft=4;spacingRight=4;whiteSpace=wrap;overflow=hidden;rotatable=0;points=[[0,0.5],[1,0.5]];portConstraint=eastwest;" vertex="1" parent="21ea969265ad0168-22">
          <mxGeometry y="56" width="160" height="26" as="geometry" />
        </mxCell>
        <mxCell id="E_lYnqVRtEGuCz4sBSCE-44" value="setear error estándar límite" style="text;html=1;strokeColor=none;fillColor=none;spacingLeft=4;spacingRight=4;whiteSpace=wrap;overflow=hidden;rotatable=0;points=[[0,0.5],[1,0.5]];portConstraint=eastwest;" vertex="1" parent="21ea969265ad0168-22">
          <mxGeometry y="82" width="160" height="26" as="geometry" />
        </mxCell>
        <mxCell id="E_lYnqVRtEGuCz4sBSCE-37" style="edgeStyle=orthogonalEdgeStyle;rounded=0;orthogonalLoop=1;jettySize=auto;html=1;entryX=0.504;entryY=1;entryDx=0;entryDy=0;entryPerimeter=0;" edge="1" parent="1" source="qf_Xf1xaWqLLTU25-IPU-7" target="E_lYnqVRtEGuCz4sBSCE-35">
          <mxGeometry relative="1" as="geometry" />
        </mxCell>
        <mxCell id="E_lYnqVRtEGuCz4sBSCE-40" style="edgeStyle=orthogonalEdgeStyle;rounded=0;orthogonalLoop=1;jettySize=auto;html=1;" edge="1" parent="1" source="qf_Xf1xaWqLLTU25-IPU-7" target="E_lYnqVRtEGuCz4sBSCE-21">
          <mxGeometry relative="1" as="geometry" />
        </mxCell>
        <mxCell id="qf_Xf1xaWqLLTU25-IPU-7" value="Mapear y filtrar" style="swimlane;html=1;fontStyle=0;childLayout=stackLayout;horizontal=1;startSize=30;fillColor=#e0e0e0;horizontalStack=0;resizeParent=1;resizeLast=0;collapsible=1;marginBottom=0;swimlaneFillColor=#ffffff;align=center;rounded=1;shadow=0;comic=0;labelBackgroundColor=none;strokeWidth=1;fontFamily=Verdana;fontSize=12" vertex="1" parent="1">
          <mxGeometry x="506.5" y="264" width="190" height="100" as="geometry">
            <mxRectangle x="545" y="510" width="200" height="30" as="alternateBounds" />
          </mxGeometry>
        </mxCell>
        <mxCell id="21ea969265ad0168-24" value="mapear genes" style="text;html=1;strokeColor=none;fillColor=none;spacingLeft=4;spacingRight=4;whiteSpace=wrap;overflow=hidden;rotatable=0;points=[[0,0.5],[1,0.5]];portConstraint=eastwest;" vertex="1" parent="qf_Xf1xaWqLLTU25-IPU-7">
          <mxGeometry y="30" width="190" height="30" as="geometry" />
        </mxCell>
        <mxCell id="E_lYnqVRtEGuCz4sBSCE-18" value="filtrar por especificidad&lt;br&gt;a un organismo" style="text;html=1;strokeColor=none;fillColor=none;spacingLeft=4;spacingRight=4;whiteSpace=wrap;overflow=hidden;rotatable=0;points=[[0,0.5],[1,0.5]];portConstraint=eastwest;" vertex="1" parent="qf_Xf1xaWqLLTU25-IPU-7">
          <mxGeometry y="60" width="190" height="40" as="geometry" />
        </mxCell>
        <mxCell id="qf_Xf1xaWqLLTU25-IPU-22" style="edgeStyle=orthogonalEdgeStyle;rounded=0;orthogonalLoop=1;jettySize=auto;html=1;entryX=0.5;entryY=0;entryDx=0;entryDy=0;" edge="1" parent="1" source="qf_Xf1xaWqLLTU25-IPU-20" target="21ea969265ad0168-22">
          <mxGeometry relative="1" as="geometry" />
        </mxCell>
        <mxCell id="E_lYnqVRtEGuCz4sBSCE-45" style="edgeStyle=orthogonalEdgeStyle;rounded=0;orthogonalLoop=1;jettySize=auto;html=1;" edge="1" parent="1" source="qf_Xf1xaWqLLTU25-IPU-20">
          <mxGeometry relative="1" as="geometry">
            <mxPoint x="240" y="195" as="targetPoint" />
          </mxGeometry>
        </mxCell>
        <mxCell id="qf_Xf1xaWqLLTU25-IPU-20" value="Sondas e intensidad &lt;br&gt;por grupo" style="html=1;rounded=0;shadow=0;comic=0;labelBackgroundColor=none;strokeWidth=2;fontFamily=Verdana;fontSize=12;align=center;shape=mxgraph.ios7ui.horLines;" vertex="1" parent="1">
          <mxGeometry x="302.5" y="170" width="135" height="50" as="geometry" />
        </mxCell>
        <mxCell id="qf_Xf1xaWqLLTU25-IPU-59" style="edgeStyle=orthogonalEdgeStyle;rounded=0;orthogonalLoop=1;jettySize=auto;html=1;entryX=1;entryY=0.5;entryDx=0;entryDy=0;" edge="1" parent="1" target="BOw-arjrgK9SXbsuC369-27">
          <mxGeometry relative="1" as="geometry">
            <Array as="points">
              <mxPoint x="280" y="532" />
              <mxPoint x="280" y="633" />
            </Array>
            <mxPoint x="140" y="632" as="targetPoint" />
            <mxPoint x="314" y="532" as="sourcePoint" />
          </mxGeometry>
        </mxCell>
        <mxCell id="qf_Xf1xaWqLLTU25-IPU-29" value="Mostrar resultados expresión" style="swimlane;html=1;fontStyle=0;childLayout=stackLayout;horizontal=1;startSize=26;fillColor=#e0e0e0;horizontalStack=0;resizeParent=1;resizeLast=0;collapsible=1;marginBottom=0;swimlaneFillColor=#ffffff;align=center;rounded=1;shadow=0;comic=0;labelBackgroundColor=none;strokeWidth=1;fontFamily=Verdana;fontSize=12" vertex="1" parent="1">
          <mxGeometry x="315" y="400" width="190" height="246" as="geometry">
            <mxRectangle x="545" y="510" width="200" height="30" as="alternateBounds" />
          </mxGeometry>
        </mxCell>
        <mxCell id="qf_Xf1xaWqLLTU25-IPU-30" value="Cantidad de genes y sondas sobreexpresadas por nivel" style="text;html=1;strokeColor=none;fillColor=none;spacingLeft=4;spacingRight=4;whiteSpace=wrap;overflow=hidden;rotatable=0;points=[[0,0.5],[1,0.5]];portConstraint=eastwest;" vertex="1" parent="qf_Xf1xaWqLLTU25-IPU-29">
          <mxGeometry y="26" width="190" height="44" as="geometry" />
        </mxCell>
        <mxCell id="qf_Xf1xaWqLLTU25-IPU-33" value="Heatmap (muestra x Sonda)" style="text;html=1;strokeColor=none;fillColor=none;spacingLeft=4;spacingRight=4;whiteSpace=wrap;overflow=hidden;rotatable=0;points=[[0,0.5],[1,0.5]];portConstraint=eastwest;" vertex="1" parent="qf_Xf1xaWqLLTU25-IPU-29">
          <mxGeometry y="70" width="190" height="26" as="geometry" />
        </mxCell>
        <mxCell id="qf_Xf1xaWqLLTU25-IPU-62" value="Heatmap (muestra x gen)" style="text;html=1;strokeColor=none;fillColor=none;spacingLeft=4;spacingRight=4;whiteSpace=wrap;overflow=hidden;rotatable=0;points=[[0,0.5],[1,0.5]];portConstraint=eastwest;" vertex="1" parent="qf_Xf1xaWqLLTU25-IPU-29">
          <mxGeometry y="96" width="190" height="26" as="geometry" />
        </mxCell>
        <mxCell id="qf_Xf1xaWqLLTU25-IPU-43" value="Gráfico de barras&amp;nbsp;expresión vs gen y por nivel" style="text;html=1;strokeColor=none;fillColor=none;spacingLeft=4;spacingRight=4;whiteSpace=wrap;overflow=hidden;rotatable=0;points=[[0,0.5],[1,0.5]];portConstraint=eastwest;" vertex="1" parent="qf_Xf1xaWqLLTU25-IPU-29">
          <mxGeometry y="122" width="190" height="44" as="geometry" />
        </mxCell>
        <mxCell id="qf_Xf1xaWqLLTU25-IPU-44" value="Tabla de sobreexpresión de genes (nivel, gen)" style="text;html=1;strokeColor=none;fillColor=none;spacingLeft=4;spacingRight=4;whiteSpace=wrap;overflow=hidden;rotatable=0;points=[[0,0.5],[1,0.5]];portConstraint=eastwest;" vertex="1" parent="qf_Xf1xaWqLLTU25-IPU-29">
          <mxGeometry y="166" width="190" height="40" as="geometry" />
        </mxCell>
        <mxCell id="qf_Xf1xaWqLLTU25-IPU-60" value="Tabla de genes y cant de sondas&lt;br&gt;(gen, sonda, cantidad total)" style="text;html=1;strokeColor=none;fillColor=none;spacingLeft=4;spacingRight=4;whiteSpace=wrap;overflow=hidden;rotatable=0;points=[[0,0.5],[1,0.5]];portConstraint=eastwest;" vertex="1" parent="qf_Xf1xaWqLLTU25-IPU-29">
          <mxGeometry y="206" width="190" height="34" as="geometry" />
        </mxCell>
        <mxCell id="8nUeaVmcHt-hz-5grroi-21" style="edgeStyle=orthogonalEdgeStyle;rounded=0;orthogonalLoop=1;jettySize=auto;html=1;entryX=0.5;entryY=0;entryDx=0;entryDy=0;" edge="1" parent="1" source="qf_Xf1xaWqLLTU25-IPU-40" target="BOw-arjrgK9SXbsuC369-19">
          <mxGeometry relative="1" as="geometry" />
        </mxCell>
        <mxCell id="E_lYnqVRtEGuCz4sBSCE-55" style="edgeStyle=orthogonalEdgeStyle;rounded=0;orthogonalLoop=1;jettySize=auto;html=1;" edge="1" parent="1" source="qf_Xf1xaWqLLTU25-IPU-40" target="E_lYnqVRtEGuCz4sBSCE-46">
          <mxGeometry relative="1" as="geometry">
            <Array as="points">
              <mxPoint x="780" y="400" />
              <mxPoint x="780" y="380" />
              <mxPoint x="155" y="380" />
            </Array>
          </mxGeometry>
        </mxCell>
        <mxCell id="qf_Xf1xaWqLLTU25-IPU-40" value="Genes por grupo" style="html=1;rounded=0;shadow=0;comic=0;labelBackgroundColor=none;strokeWidth=2;fontFamily=Verdana;fontSize=12;align=center;shape=mxgraph.ios7ui.horLines;" vertex="1" parent="1">
          <mxGeometry x="807.5" y="390" width="135" height="50" as="geometry" />
        </mxCell>
        <mxCell id="qf_Xf1xaWqLLTU25-IPU-56" style="edgeStyle=orthogonalEdgeStyle;rounded=0;orthogonalLoop=1;jettySize=auto;html=1;entryX=1;entryY=0.5;entryDx=0;entryDy=0;" edge="1" parent="1" source="qf_Xf1xaWqLLTU25-IPU-46" target="BOw-arjrgK9SXbsuC369-27">
          <mxGeometry relative="1" as="geometry">
            <mxPoint x="140" y="632" as="targetPoint" />
            <Array as="points">
              <mxPoint x="280" y="719" />
              <mxPoint x="280" y="633" />
            </Array>
          </mxGeometry>
        </mxCell>
        <mxCell id="qf_Xf1xaWqLLTU25-IPU-46" value="Mostrar resultados de vías" style="swimlane;html=1;fontStyle=0;childLayout=stackLayout;horizontal=1;startSize=26;fillColor=#e0e0e0;horizontalStack=0;resizeParent=1;resizeLast=0;collapsible=1;marginBottom=0;swimlaneFillColor=#ffffff;align=center;rounded=1;shadow=0;comic=0;labelBackgroundColor=none;strokeWidth=1;fontFamily=Verdana;fontSize=12" vertex="1" parent="1">
          <mxGeometry x="316.5" y="672" width="190" height="136" as="geometry">
            <mxRectangle x="545" y="510" width="200" height="30" as="alternateBounds" />
          </mxGeometry>
        </mxCell>
        <mxCell id="qf_Xf1xaWqLLTU25-IPU-50" value="Tabla de sobreexpresión de vias general [sobreactivación, nombre, p-value]" style="text;html=1;strokeColor=none;fillColor=none;spacingLeft=4;spacingRight=4;whiteSpace=wrap;overflow=hidden;rotatable=0;points=[[0,0.5],[1,0.5]];portConstraint=eastwest;" vertex="1" parent="qf_Xf1xaWqLLTU25-IPU-46">
          <mxGeometry y="26" width="190" height="50" as="geometry" />
        </mxCell>
        <mxCell id="qf_Xf1xaWqLLTU25-IPU-49" value="Gráfico de vias" style="text;html=1;strokeColor=none;fillColor=none;spacingLeft=4;spacingRight=4;whiteSpace=wrap;overflow=hidden;rotatable=0;points=[[0,0.5],[1,0.5]];portConstraint=eastwest;" vertex="1" parent="qf_Xf1xaWqLLTU25-IPU-46">
          <mxGeometry y="76" width="190" height="20" as="geometry" />
        </mxCell>
        <mxCell id="qf_Xf1xaWqLLTU25-IPU-61" value="Gráfico de barras, vías vs cantidad de sondas" style="text;html=1;strokeColor=none;fillColor=none;spacingLeft=4;spacingRight=4;whiteSpace=wrap;overflow=hidden;rotatable=0;points=[[0,0.5],[1,0.5]];portConstraint=eastwest;" vertex="1" parent="qf_Xf1xaWqLLTU25-IPU-46">
          <mxGeometry y="96" width="190" height="40" as="geometry" />
        </mxCell>
        <mxCell id="qf_Xf1xaWqLLTU25-IPU-52" value="Mostrar resultados cruazados" style="swimlane;html=1;fontStyle=0;childLayout=stackLayout;horizontal=1;startSize=26;fillColor=#e0e0e0;horizontalStack=0;resizeParent=1;resizeLast=0;collapsible=1;marginBottom=0;swimlaneFillColor=#ffffff;align=center;rounded=1;shadow=0;comic=0;labelBackgroundColor=none;strokeWidth=1;fontFamily=Verdana;fontSize=12" vertex="1" parent="1">
          <mxGeometry x="41" y="590" width="190" height="68" as="geometry">
            <mxRectangle x="545" y="510" width="200" height="30" as="alternateBounds" />
          </mxGeometry>
        </mxCell>
        <mxCell id="BOw-arjrgK9SXbsuC369-27" value="Tabla de genes y vías&lt;br&gt;(gen, cantidad total, via, nivel)" style="text;html=1;strokeColor=none;fillColor=none;spacingLeft=4;spacingRight=4;whiteSpace=wrap;overflow=hidden;rotatable=0;points=[[0,0.5],[1,0.5]];portConstraint=eastwest;" vertex="1" parent="qf_Xf1xaWqLLTU25-IPU-52">
          <mxGeometry y="26" width="190" height="34" as="geometry" />
        </mxCell>
        <mxCell id="E_lYnqVRtEGuCz4sBSCE-53" style="edgeStyle=orthogonalEdgeStyle;rounded=0;orthogonalLoop=1;jettySize=auto;html=1;entryX=1;entryY=0.25;entryDx=0;entryDy=0;" edge="1" parent="1" source="BOw-arjrgK9SXbsuC369-1" target="E_lYnqVRtEGuCz4sBSCE-3">
          <mxGeometry relative="1" as="geometry" />
        </mxCell>
        <mxCell id="BOw-arjrgK9SXbsuC369-1" value="Agrupar muestras" style="swimlane;html=1;fontStyle=0;childLayout=stackLayout;horizontal=1;startSize=26;fillColor=#e0e0e0;horizontalStack=0;resizeParent=1;resizeLast=0;collapsible=1;marginBottom=0;swimlaneFillColor=#ffffff;align=center;rounded=1;shadow=0;comic=0;labelBackgroundColor=none;strokeWidth=1;fontFamily=Verdana;fontSize=12" vertex="1" parent="1">
          <mxGeometry x="690" y="11" width="174" height="104" as="geometry" />
        </mxCell>
        <mxCell id="BOw-arjrgK9SXbsuC369-2" value="seleccionar muestras" style="text;html=1;strokeColor=none;fillColor=none;spacingLeft=4;spacingRight=4;whiteSpace=wrap;overflow=hidden;rotatable=0;points=[[0,0.5],[1,0.5]];portConstraint=eastwest;" vertex="1" parent="BOw-arjrgK9SXbsuC369-1">
          <mxGeometry y="26" width="174" height="26" as="geometry" />
        </mxCell>
        <mxCell id="E_lYnqVRtEGuCz4sBSCE-7" value="agrupar muestras" style="text;html=1;strokeColor=none;fillColor=none;spacingLeft=4;spacingRight=4;whiteSpace=wrap;overflow=hidden;rotatable=0;points=[[0,0.5],[1,0.5]];portConstraint=eastwest;" vertex="1" parent="BOw-arjrgK9SXbsuC369-1">
          <mxGeometry y="52" width="174" height="26" as="geometry" />
        </mxCell>
        <mxCell id="E_lYnqVRtEGuCz4sBSCE-8" value="setear error estándar límite" style="text;html=1;strokeColor=none;fillColor=none;spacingLeft=4;spacingRight=4;whiteSpace=wrap;overflow=hidden;rotatable=0;points=[[0,0.5],[1,0.5]];portConstraint=eastwest;" vertex="1" parent="BOw-arjrgK9SXbsuC369-1">
          <mxGeometry y="78" width="174" height="26" as="geometry" />
        </mxCell>
        <mxCell id="E_lYnqVRtEGuCz4sBSCE-6" style="edgeStyle=orthogonalEdgeStyle;rounded=0;orthogonalLoop=1;jettySize=auto;html=1;entryX=1;entryY=0.5;entryDx=0;entryDy=0;" edge="1" parent="1" source="BOw-arjrgK9SXbsuC369-7" target="E_lYnqVRtEGuCz4sBSCE-3">
          <mxGeometry relative="1" as="geometry" />
        </mxCell>
        <mxCell id="BOw-arjrgK9SXbsuC369-7" value="Datos de &lt;br&gt;muestras" style="html=1;rounded=0;shadow=0;comic=0;labelBackgroundColor=none;strokeWidth=2;fontFamily=Verdana;fontSize=12;align=center;shape=mxgraph.ios7ui.horLines;" vertex="1" parent="1">
          <mxGeometry x="530" y="101" width="135" height="50" as="geometry" />
        </mxCell>
        <mxCell id="8nUeaVmcHt-hz-5grroi-22" style="edgeStyle=orthogonalEdgeStyle;rounded=0;orthogonalLoop=1;jettySize=auto;html=1;entryX=0.5;entryY=0;entryDx=0;entryDy=0;" edge="1" parent="1" source="BOw-arjrgK9SXbsuC369-19" target="6efIbfthWVleyXhkKFmn-6">
          <mxGeometry relative="1" as="geometry" />
        </mxCell>
        <mxCell id="BOw-arjrgK9SXbsuC369-19" value="Procesar genes" style="swimlane;html=1;fontStyle=0;childLayout=stackLayout;horizontal=1;startSize=30;fillColor=#e0e0e0;horizontalStack=0;resizeParent=1;resizeLast=0;collapsible=1;marginBottom=0;swimlaneFillColor=#ffffff;align=center;rounded=1;shadow=0;comic=0;labelBackgroundColor=none;strokeWidth=1;fontFamily=Verdana;fontSize=12" vertex="1" parent="1">
          <mxGeometry x="780" y="460" width="190" height="120" as="geometry">
            <mxRectangle x="560" y="340" width="150" height="40" as="alternateBounds" />
          </mxGeometry>
        </mxCell>
        <mxCell id="8nUeaVmcHt-hz-5grroi-19" value="cargar datos" style="text;html=1;strokeColor=none;fillColor=none;spacingLeft=4;spacingRight=4;whiteSpace=wrap;overflow=hidden;rotatable=0;points=[[0,0.5],[1,0.5]];portConstraint=eastwest;" vertex="1" parent="BOw-arjrgK9SXbsuC369-19">
          <mxGeometry y="30" width="190" height="30" as="geometry" />
        </mxCell>
        <mxCell id="BOw-arjrgK9SXbsuC369-20" value="seleccionar grupo control" style="text;html=1;strokeColor=none;fillColor=none;spacingLeft=4;spacingRight=4;whiteSpace=wrap;overflow=hidden;rotatable=0;points=[[0,0.5],[1,0.5]];portConstraint=eastwest;" vertex="1" parent="BOw-arjrgK9SXbsuC369-19">
          <mxGeometry y="60" width="190" height="30" as="geometry" />
        </mxCell>
        <mxCell id="E_lYnqVRtEGuCz4sBSCE-56" value="setear p-value límite" style="text;html=1;strokeColor=none;fillColor=none;spacingLeft=4;spacingRight=4;whiteSpace=wrap;overflow=hidden;rotatable=0;points=[[0,0.5],[1,0.5]];portConstraint=eastwest;" vertex="1" parent="BOw-arjrgK9SXbsuC369-19">
          <mxGeometry y="90" width="190" height="30" as="geometry" />
        </mxCell>
        <mxCell id="6efIbfthWVleyXhkKFmn-2" value="Mostrar aviso (log)" style="swimlane;html=1;fontStyle=1;childLayout=stackLayout;horizontal=1;startSize=30;fillColor=#f8cecc;horizontalStack=0;resizeParent=1;resizeLast=0;collapsible=1;marginBottom=0;swimlaneFillColor=#ffffff;align=center;rounded=1;shadow=0;comic=0;labelBackgroundColor=none;strokeWidth=1;fontFamily=Verdana;fontSize=12;strokeColor=#b85450;" vertex="1" parent="1">
          <mxGeometry x="51" y="420" width="160" height="108" as="geometry">
            <mxRectangle x="560" y="340" width="150" height="40" as="alternateBounds" />
          </mxGeometry>
        </mxCell>
        <mxCell id="6efIbfthWVleyXhkKFmn-3" value="mostrar error" style="text;html=1;strokeColor=none;fillColor=none;spacingLeft=4;spacingRight=4;whiteSpace=wrap;overflow=hidden;rotatable=0;points=[[0,0.5],[1,0.5]];portConstraint=eastwest;" vertex="1" parent="6efIbfthWVleyXhkKFmn-2">
          <mxGeometry y="30" width="160" height="26" as="geometry" />
        </mxCell>
        <mxCell id="8nUeaVmcHt-hz-5grroi-5" value="mostrar warning" style="text;html=1;strokeColor=none;fillColor=none;spacingLeft=4;spacingRight=4;whiteSpace=wrap;overflow=hidden;rotatable=0;points=[[0,0.5],[1,0.5]];portConstraint=eastwest;" vertex="1" parent="6efIbfthWVleyXhkKFmn-2">
          <mxGeometry y="56" width="160" height="26" as="geometry" />
        </mxCell>
        <mxCell id="6efIbfthWVleyXhkKFmn-4" value="mostrar fin de proceso" style="text;html=1;strokeColor=none;fillColor=none;spacingLeft=4;spacingRight=4;whiteSpace=wrap;overflow=hidden;rotatable=0;points=[[0,0.5],[1,0.5]];portConstraint=eastwest;" vertex="1" parent="6efIbfthWVleyXhkKFmn-2">
          <mxGeometry y="82" width="160" height="26" as="geometry" />
        </mxCell>
        <mxCell id="E_lYnqVRtEGuCz4sBSCE-61" style="edgeStyle=orthogonalEdgeStyle;rounded=0;orthogonalLoop=1;jettySize=auto;html=1;entryX=0.5;entryY=-0.02;entryDx=0;entryDy=0;entryPerimeter=0;" edge="1" parent="1" source="6efIbfthWVleyXhkKFmn-6" target="E_lYnqVRtEGuCz4sBSCE-60">
          <mxGeometry relative="1" as="geometry" />
        </mxCell>
        <mxCell id="E_lYnqVRtEGuCz4sBSCE-87" style="edgeStyle=orthogonalEdgeStyle;rounded=0;orthogonalLoop=1;jettySize=auto;html=1;" edge="1" parent="1" source="6efIbfthWVleyXhkKFmn-6" target="E_lYnqVRtEGuCz4sBSCE-74">
          <mxGeometry relative="1" as="geometry">
            <Array as="points">
              <mxPoint x="760" y="685" />
              <mxPoint x="760" y="685" />
            </Array>
          </mxGeometry>
        </mxCell>
        <mxCell id="6efIbfthWVleyXhkKFmn-6" value="Procesar grupos de genes" style="swimlane;html=1;fontStyle=0;childLayout=stackLayout;horizontal=1;startSize=30;fillColor=#e0e0e0;horizontalStack=0;resizeParent=1;resizeLast=0;collapsible=1;marginBottom=0;swimlaneFillColor=#ffffff;align=center;rounded=1;shadow=0;comic=0;labelBackgroundColor=none;strokeWidth=1;fontFamily=Verdana;fontSize=12" vertex="1" parent="1">
          <mxGeometry x="780" y="610" width="190" height="150" as="geometry">
            <mxRectangle x="560" y="340" width="150" height="40" as="alternateBounds" />
          </mxGeometry>
        </mxCell>
        <mxCell id="6efIbfthWVleyXhkKFmn-7" value="calcular log2foldchange" style="text;html=1;strokeColor=none;fillColor=none;spacingLeft=4;spacingRight=4;whiteSpace=wrap;overflow=hidden;rotatable=0;points=[[0,0.5],[1,0.5]];portConstraint=eastwest;" vertex="1" parent="6efIbfthWVleyXhkKFmn-6">
          <mxGeometry y="30" width="190" height="30" as="geometry" />
        </mxCell>
        <mxCell id="6efIbfthWVleyXhkKFmn-8" value="calcular p-value" style="text;html=1;strokeColor=none;fillColor=none;spacingLeft=4;spacingRight=4;whiteSpace=wrap;overflow=hidden;rotatable=0;points=[[0,0.5],[1,0.5]];portConstraint=eastwest;" vertex="1" parent="6efIbfthWVleyXhkKFmn-6">
          <mxGeometry y="60" width="190" height="30" as="geometry" />
        </mxCell>
        <mxCell id="E_lYnqVRtEGuCz4sBSCE-57" value="filtrar p-value" style="text;html=1;strokeColor=none;fillColor=none;spacingLeft=4;spacingRight=4;whiteSpace=wrap;overflow=hidden;rotatable=0;points=[[0,0.5],[1,0.5]];portConstraint=eastwest;" vertex="1" parent="6efIbfthWVleyXhkKFmn-6">
          <mxGeometry y="90" width="190" height="30" as="geometry" />
        </mxCell>
        <mxCell id="E_lYnqVRtEGuCz4sBSCE-71" value="guardar resultados" style="text;html=1;strokeColor=none;fillColor=none;spacingLeft=4;spacingRight=4;whiteSpace=wrap;overflow=hidden;rotatable=0;points=[[0,0.5],[1,0.5]];portConstraint=eastwest;" vertex="1" parent="6efIbfthWVleyXhkKFmn-6">
          <mxGeometry y="120" width="190" height="30" as="geometry" />
        </mxCell>
        <mxCell id="E_lYnqVRtEGuCz4sBSCE-28" style="edgeStyle=orthogonalEdgeStyle;rounded=0;orthogonalLoop=1;jettySize=auto;html=1;entryX=0.994;entryY=0.154;entryDx=0;entryDy=0;entryPerimeter=0;" edge="1" parent="1" source="hEHS_x9ZM1ayVBwrC5Qj-1" target="E_lYnqVRtEGuCz4sBSCE-7">
          <mxGeometry relative="1" as="geometry" />
        </mxCell>
        <mxCell id="hEHS_x9ZM1ayVBwrC5Qj-1" value="Metadatos &lt;br&gt;de muestras" style="html=1;rounded=0;shadow=0;comic=0;labelBackgroundColor=none;strokeWidth=2;fontFamily=Verdana;fontSize=12;align=center;shape=mxgraph.ios7ui.horLines;" vertex="1" parent="1">
          <mxGeometry x="910" y="42" width="135" height="50" as="geometry" />
        </mxCell>
        <mxCell id="E_lYnqVRtEGuCz4sBSCE-12" style="edgeStyle=orthogonalEdgeStyle;rounded=0;orthogonalLoop=1;jettySize=auto;html=1;entryX=0.5;entryY=-0.08;entryDx=0;entryDy=0;entryPerimeter=0;" edge="1" parent="1" source="E_lYnqVRtEGuCz4sBSCE-3" target="qf_Xf1xaWqLLTU25-IPU-20">
          <mxGeometry relative="1" as="geometry" />
        </mxCell>
        <mxCell id="E_lYnqVRtEGuCz4sBSCE-14" style="edgeStyle=orthogonalEdgeStyle;rounded=0;orthogonalLoop=1;jettySize=auto;html=1;" edge="1" parent="1" source="E_lYnqVRtEGuCz4sBSCE-3" target="E_lYnqVRtEGuCz4sBSCE-9">
          <mxGeometry relative="1" as="geometry" />
        </mxCell>
        <mxCell id="E_lYnqVRtEGuCz4sBSCE-3" value="Procesar muestras" style="swimlane;html=1;fontStyle=0;childLayout=stackLayout;horizontal=1;startSize=26;fillColor=#e0e0e0;horizontalStack=0;resizeParent=1;resizeLast=0;collapsible=1;marginBottom=0;swimlaneFillColor=#ffffff;align=center;rounded=1;shadow=0;comic=0;labelBackgroundColor=none;strokeWidth=1;fontFamily=Verdana;fontSize=12" vertex="1" parent="1">
          <mxGeometry x="290" y="23" width="160" height="110" as="geometry" />
        </mxCell>
        <mxCell id="E_lYnqVRtEGuCz4sBSCE-4" value="promediar intensidad" style="text;html=1;strokeColor=none;fillColor=none;spacingLeft=4;spacingRight=4;whiteSpace=wrap;overflow=hidden;rotatable=0;points=[[0,0.5],[1,0.5]];portConstraint=eastwest;" vertex="1" parent="E_lYnqVRtEGuCz4sBSCE-3">
          <mxGeometry y="26" width="160" height="24" as="geometry" />
        </mxCell>
        <mxCell id="E_lYnqVRtEGuCz4sBSCE-5" value="filtrar sondas&lt;br&gt;de error alto" style="text;html=1;strokeColor=none;fillColor=none;spacingLeft=4;spacingRight=4;whiteSpace=wrap;overflow=hidden;rotatable=0;points=[[0,0.5],[1,0.5]];portConstraint=eastwest;" vertex="1" parent="E_lYnqVRtEGuCz4sBSCE-3">
          <mxGeometry y="50" width="160" height="38" as="geometry" />
        </mxCell>
        <mxCell id="E_lYnqVRtEGuCz4sBSCE-54" value="guardar sondas" style="text;html=1;strokeColor=none;fillColor=none;spacingLeft=4;spacingRight=4;whiteSpace=wrap;overflow=hidden;rotatable=0;points=[[0,0.5],[1,0.5]];portConstraint=eastwest;" vertex="1" parent="E_lYnqVRtEGuCz4sBSCE-3">
          <mxGeometry y="88" width="160" height="22" as="geometry" />
        </mxCell>
        <mxCell id="E_lYnqVRtEGuCz4sBSCE-9" value="Sondas de &lt;br&gt;error alto" style="html=1;rounded=0;shadow=0;comic=0;labelBackgroundColor=none;strokeWidth=2;fontFamily=Verdana;fontSize=12;align=center;shape=mxgraph.ios7ui.horLines;" vertex="1" parent="1">
          <mxGeometry x="70" y="42" width="135" height="50" as="geometry" />
        </mxCell>
        <mxCell id="E_lYnqVRtEGuCz4sBSCE-43" style="edgeStyle=orthogonalEdgeStyle;rounded=0;orthogonalLoop=1;jettySize=auto;html=1;" edge="1" parent="1" source="E_lYnqVRtEGuCz4sBSCE-21" target="E_lYnqVRtEGuCz4sBSCE-42">
          <mxGeometry relative="1" as="geometry" />
        </mxCell>
        <mxCell id="E_lYnqVRtEGuCz4sBSCE-73" style="edgeStyle=orthogonalEdgeStyle;rounded=0;orthogonalLoop=1;jettySize=auto;html=1;" edge="1" parent="1" source="E_lYnqVRtEGuCz4sBSCE-21" target="qf_Xf1xaWqLLTU25-IPU-40">
          <mxGeometry relative="1" as="geometry" />
        </mxCell>
        <mxCell id="E_lYnqVRtEGuCz4sBSCE-21" value="Promediar y filtrar" style="swimlane;html=1;fontStyle=0;childLayout=stackLayout;horizontal=1;startSize=26;fillColor=#e0e0e0;horizontalStack=0;resizeParent=1;resizeLast=0;collapsible=1;marginBottom=0;swimlaneFillColor=#ffffff;align=center;rounded=1;shadow=0;comic=0;labelBackgroundColor=none;strokeWidth=1;fontFamily=Verdana;fontSize=12" vertex="1" parent="1">
          <mxGeometry x="780" y="264" width="190" height="100" as="geometry">
            <mxRectangle x="545" y="510" width="200" height="30" as="alternateBounds" />
          </mxGeometry>
        </mxCell>
        <mxCell id="E_lYnqVRtEGuCz4sBSCE-23" value="promediar expresión" style="text;html=1;strokeColor=none;fillColor=none;spacingLeft=4;spacingRight=4;whiteSpace=wrap;overflow=hidden;rotatable=0;points=[[0,0.5],[1,0.5]];portConstraint=eastwest;" vertex="1" parent="E_lYnqVRtEGuCz4sBSCE-21">
          <mxGeometry y="26" width="190" height="26" as="geometry" />
        </mxCell>
        <mxCell id="E_lYnqVRtEGuCz4sBSCE-16" value="filtrar por error estándar" style="text;html=1;strokeColor=none;fillColor=none;spacingLeft=4;spacingRight=4;whiteSpace=wrap;overflow=hidden;rotatable=0;points=[[0,0.5],[1,0.5]];portConstraint=eastwest;" vertex="1" parent="E_lYnqVRtEGuCz4sBSCE-21">
          <mxGeometry y="52" width="190" height="26" as="geometry" />
        </mxCell>
        <mxCell id="E_lYnqVRtEGuCz4sBSCE-70" value="guardar genes" style="text;html=1;strokeColor=none;fillColor=none;spacingLeft=4;spacingRight=4;whiteSpace=wrap;overflow=hidden;rotatable=0;points=[[0,0.5],[1,0.5]];portConstraint=eastwest;" vertex="1" parent="E_lYnqVRtEGuCz4sBSCE-21">
          <mxGeometry y="78" width="190" height="22" as="geometry" />
        </mxCell>
        <mxCell id="E_lYnqVRtEGuCz4sBSCE-35" value="Sondas&lt;br&gt;inespecíficas" style="html=1;rounded=0;shadow=0;comic=0;labelBackgroundColor=none;strokeWidth=2;fontFamily=Verdana;fontSize=12;align=center;shape=mxgraph.ios7ui.horLines;" vertex="1" parent="1">
          <mxGeometry x="534" y="170" width="135" height="50" as="geometry" />
        </mxCell>
        <mxCell id="E_lYnqVRtEGuCz4sBSCE-42" value="Genes de alto error" style="html=1;rounded=0;shadow=0;comic=0;labelBackgroundColor=none;strokeWidth=2;fontFamily=Verdana;fontSize=12;align=center;shape=mxgraph.ios7ui.horLines;" vertex="1" parent="1">
          <mxGeometry x="807.5" y="180" width="135" height="50" as="geometry" />
        </mxCell>
        <mxCell id="E_lYnqVRtEGuCz4sBSCE-46" value="Controlar calidad" style="swimlane;html=1;fontStyle=0;childLayout=stackLayout;horizontal=1;startSize=26;fillColor=#e0e0e0;horizontalStack=0;resizeParent=1;resizeLast=0;collapsible=1;marginBottom=0;swimlaneFillColor=#ffffff;align=center;rounded=1;shadow=0;comic=0;labelBackgroundColor=none;strokeWidth=1;fontFamily=Verdana;fontSize=12" vertex="1" parent="1">
          <mxGeometry x="70" y="151" width="170" height="122" as="geometry" />
        </mxCell>
        <mxCell id="E_lYnqVRtEGuCz4sBSCE-47" value="gráfico de componentes" style="text;html=1;strokeColor=none;fillColor=none;spacingLeft=4;spacingRight=4;whiteSpace=wrap;overflow=hidden;rotatable=0;points=[[0,0.5],[1,0.5]];portConstraint=eastwest;" vertex="1" parent="E_lYnqVRtEGuCz4sBSCE-46">
          <mxGeometry y="26" width="170" height="24" as="geometry" />
        </mxCell>
        <mxCell id="E_lYnqVRtEGuCz4sBSCE-49" value="heatmap" style="text;html=1;strokeColor=none;fillColor=none;spacingLeft=4;spacingRight=4;whiteSpace=wrap;overflow=hidden;rotatable=0;points=[[0,0.5],[1,0.5]];portConstraint=eastwest;" vertex="1" parent="E_lYnqVRtEGuCz4sBSCE-46">
          <mxGeometry y="50" width="170" height="24" as="geometry" />
        </mxCell>
        <mxCell id="E_lYnqVRtEGuCz4sBSCE-50" value="boxplot / curva de intensidad" style="text;html=1;strokeColor=none;fillColor=none;spacingLeft=4;spacingRight=4;whiteSpace=wrap;overflow=hidden;rotatable=0;points=[[0,0.5],[1,0.5]];portConstraint=eastwest;" vertex="1" parent="E_lYnqVRtEGuCz4sBSCE-46">
          <mxGeometry y="74" width="170" height="24" as="geometry" />
        </mxCell>
        <mxCell id="E_lYnqVRtEGuCz4sBSCE-51" value="UMAP" style="text;html=1;strokeColor=none;fillColor=none;spacingLeft=4;spacingRight=4;whiteSpace=wrap;overflow=hidden;rotatable=0;points=[[0,0.5],[1,0.5]];portConstraint=eastwest;" vertex="1" parent="E_lYnqVRtEGuCz4sBSCE-46">
          <mxGeometry y="98" width="170" height="24" as="geometry" />
        </mxCell>
        <mxCell id="E_lYnqVRtEGuCz4sBSCE-60" value="Genes no expresados&lt;br&gt;diferencialmente" style="html=1;rounded=0;shadow=0;comic=0;labelBackgroundColor=none;strokeWidth=2;fontFamily=Verdana;fontSize=12;align=center;shape=mxgraph.ios7ui.horLines;" vertex="1" parent="1">
          <mxGeometry x="807.5" y="780" width="135" height="50" as="geometry" />
        </mxCell>
        <mxCell id="E_lYnqVRtEGuCz4sBSCE-65" value="Análisis y metanálisis&lt;br&gt;&amp;nbsp;de resultados" style="swimlane;html=1;fontStyle=0;childLayout=stackLayout;horizontal=1;startSize=30;fillColor=#e0e0e0;horizontalStack=0;resizeParent=1;resizeLast=0;collapsible=1;marginBottom=0;swimlaneFillColor=#ffffff;align=center;rounded=1;shadow=0;comic=0;labelBackgroundColor=none;strokeWidth=1;fontFamily=Verdana;fontSize=12" vertex="1" parent="1">
          <mxGeometry x="572.5" y="425" width="190" height="90" as="geometry">
            <mxRectangle x="560" y="340" width="150" height="40" as="alternateBounds" />
          </mxGeometry>
        </mxCell>
        <mxCell id="E_lYnqVRtEGuCz4sBSCE-78" style="edgeStyle=orthogonalEdgeStyle;rounded=0;orthogonalLoop=1;jettySize=auto;html=1;" edge="1" parent="E_lYnqVRtEGuCz4sBSCE-65" source="E_lYnqVRtEGuCz4sBSCE-66">
          <mxGeometry relative="1" as="geometry">
            <mxPoint x="-32.5" y="45" as="targetPoint" />
          </mxGeometry>
        </mxCell>
        <mxCell id="E_lYnqVRtEGuCz4sBSCE-66" value="cargar mútiples datos" style="text;html=1;strokeColor=none;fillColor=none;spacingLeft=4;spacingRight=4;whiteSpace=wrap;overflow=hidden;rotatable=0;points=[[0,0.5],[1,0.5]];portConstraint=eastwest;" vertex="1" parent="E_lYnqVRtEGuCz4sBSCE-65">
          <mxGeometry y="30" width="190" height="30" as="geometry" />
        </mxCell>
        <mxCell id="E_lYnqVRtEGuCz4sBSCE-76" value="seleccionar gráfico" style="text;html=1;strokeColor=none;fillColor=none;spacingLeft=4;spacingRight=4;whiteSpace=wrap;overflow=hidden;rotatable=0;points=[[0,0.5],[1,0.5]];portConstraint=eastwest;" vertex="1" parent="E_lYnqVRtEGuCz4sBSCE-65">
          <mxGeometry y="60" width="190" height="30" as="geometry" />
        </mxCell>
        <mxCell id="E_lYnqVRtEGuCz4sBSCE-85" style="edgeStyle=orthogonalEdgeStyle;rounded=0;orthogonalLoop=1;jettySize=auto;html=1;" edge="1" parent="1" source="E_lYnqVRtEGuCz4sBSCE-74" target="E_lYnqVRtEGuCz4sBSCE-84">
          <mxGeometry relative="1" as="geometry" />
        </mxCell>
        <mxCell id="E_lYnqVRtEGuCz4sBSCE-74" value="Enriquecer" style="swimlane;html=1;fontStyle=0;childLayout=stackLayout;horizontal=1;startSize=30;fillColor=#e0e0e0;horizontalStack=0;resizeParent=1;resizeLast=0;collapsible=1;marginBottom=0;swimlaneFillColor=#ffffff;align=center;rounded=1;shadow=0;comic=0;labelBackgroundColor=none;strokeWidth=1;fontFamily=Verdana;fontSize=12" vertex="1" parent="1">
          <mxGeometry x="588.75" y="620" width="157.5" height="100" as="geometry">
            <mxRectangle x="560" y="340" width="150" height="40" as="alternateBounds" />
          </mxGeometry>
        </mxCell>
        <mxCell id="E_lYnqVRtEGuCz4sBSCE-75" value="enriquecer genes" style="text;html=1;strokeColor=none;fillColor=none;spacingLeft=4;spacingRight=4;whiteSpace=wrap;overflow=hidden;rotatable=0;points=[[0,0.5],[1,0.5]];portConstraint=eastwest;" vertex="1" parent="E_lYnqVRtEGuCz4sBSCE-74">
          <mxGeometry y="30" width="157.5" height="30" as="geometry" />
        </mxCell>
        <mxCell id="E_lYnqVRtEGuCz4sBSCE-82" value="guardar resultados enriquecidos" style="text;html=1;strokeColor=none;fillColor=none;spacingLeft=4;spacingRight=4;whiteSpace=wrap;overflow=hidden;rotatable=0;points=[[0,0.5],[1,0.5]];portConstraint=eastwest;" vertex="1" parent="E_lYnqVRtEGuCz4sBSCE-74">
          <mxGeometry y="60" width="157.5" height="40" as="geometry" />
        </mxCell>
        <mxCell id="E_lYnqVRtEGuCz4sBSCE-86" style="edgeStyle=orthogonalEdgeStyle;rounded=0;orthogonalLoop=1;jettySize=auto;html=1;" edge="1" parent="1" source="E_lYnqVRtEGuCz4sBSCE-84" target="E_lYnqVRtEGuCz4sBSCE-65">
          <mxGeometry relative="1" as="geometry" />
        </mxCell>
        <mxCell id="E_lYnqVRtEGuCz4sBSCE-84" value="Genes expresados&lt;br&gt;diferencialmente&lt;br&gt;enriquecidos" style="html=1;rounded=0;shadow=0;comic=0;labelBackgroundColor=none;strokeWidth=2;fontFamily=Verdana;fontSize=12;align=center;shape=mxgraph.ios7ui.horLines;" vertex="1" parent="1">
          <mxGeometry x="600" y="540" width="135" height="50" as="geometry" />
        </mxCell>
      </root>
    </mxGraphModel>
  </diagram>
</mxfile>
